<svg version="1.0" width="1024.000000pt" height="1024.000000pt" viewBox="231.739 232.168 568.261 567.832" preserveAspectRatio="xMidYMid meet" xmlns="http://www.w3.org/2000/svg">
  <defs>
    <linearGradient gradientUnits="userSpaceOnUse" x1="5126.705" y1="2349.955" x2="5126.705" y2="7846.963" id="gradient-0" gradientTransform="matrix(0.999989, -0.004583, 0.005749, 1.253417, -13.455281, -572.021615)">
      <stop offset="0" style="stop-color: rgb(2, 167, 0);"></stop>
      <stop offset="1" style="stop-color: rgb(115, 255, 243);"></stop>
    </linearGradient>
  </defs>
  <g transform="translate(0.000000,1024.000000) scale(0.100000,-0.100000)" fill="#000000" stroke="none">
    <path d="M4909 7839 c-438 -31 -906 -189 -1290 -435 -244 -155 -541 -428 -723
-661 -324 -417 -508 -876 -557 -1388 -14 -149 -6 -478 16 -635 37 -267 138
-587 262 -835 41 -82 179 -307 239 -391 114 -159 326 -384 479 -507 388 -312
843 -517 1337 -602 185 -33 543 -45 726 -26 341 36 670 132 997 291 283 139
483 281 713 508 355 351 598 777 722 1267 122 481 122 905 -1 1360 -128 475
-375 893 -730 1240 -152 148 -346 304 -470 378 -92 54 -108 52 -376 -49 -125
-48 -302 -114 -392 -148 -90 -34 -169 -69 -174 -78 -8 -12 16 -64 113 -239
336 -607 310 -566 455 -729 229 -259 369 -527 422 -810 26 -141 24 -391 -6
-529 -102 -479 -412 -876 -860 -1101 -454 -227 -960 -222 -1410 16 -163 86
-245 148 -392 294 -232 232 -368 476 -435 780 -22 103 -29 332 -14 460 29 256
152 533 340 769 314 394 826 618 1307 572 138 -13 245 -40 277 -70 12 -11 51
-69 86 -128 35 -60 77 -129 93 -156 43 -69 99 -76 121 -14 8 22 -14 65 -172
343 -238 420 -247 432 -277 444 -34 13 -357 13 -465 0 -269 -33 -572 -143
-827 -302 -450 -279 -794 -787 -894 -1318 -20 -106 -24 -155 -23 -330 0 -278
28 -427 120 -652 133 -327 291 -555 542 -781 215 -194 551 -371 848 -447 266
-69 596 -78 854 -25 502 104 947 376 1229 752 244 324 368 646 402 1047 33
392 -83 817 -324 1185 -125 190 -264 337 -473 503 -67 53 -129 107 -138 120
-33 47 -10 111 53 146 42 23 183 72 209 72 81 0 428 -317 606 -554 154 -205
245 -381 331 -641 84 -250 107 -399 108 -690 0 -192 -3 -252 -22 -365 -73
-444 -256 -828 -557 -1170 -120 -137 -174 -189 -314 -300 -290 -231 -552 -356
-940 -449 -240 -58 -518 -75 -785 -51 -577 53 -1140 345 -1538 799 -271 309
-427 595 -516 946 -81 325 -97 655 -46 960 58 344 216 702 441 1001 73 97 272
304 375 390 315 263 701 437 1154 520 123 22 427 30 585 14 l125 -12 195 70
c357 128 595 222 608 239 17 24 15 47 -8 68 -26 24 -75 16 -178 -28 -67 -29
-89 -34 -108 -26 -35 13 -204 55 -294 73 -245 49 -502 64 -761 45z" style="stroke: rgb(175, 208, 71); paint-order: fill; fill: url(#gradient-0);"></path>
    <path d="M5023 6276 c-104 -34 -185 -106 -232 -205 l-26 -56 3 -247 c4 -270
-1 -298 -54 -318 -14 -6 -154 -10 -312 -10 -278 0 -289 -1 -344 -24 -113 -46
-183 -127 -214 -245 -39 -153 36 -320 173 -387 l58 -29 317 -5 318 -5 27 -27
26 -27 4 -258 c2 -142 8 -278 14 -303 22 -100 133 -209 243 -240 63 -17 188
-8 248 18 62 27 134 95 163 152 38 75 45 137 45 390 0 238 0 239 24 267 l24
28 324 5 c319 5 324 5 373 30 60 30 126 95 154 153 84 173 13 383 -161 474
l-53 28 -317 5 c-314 5 -318 5 -340 28 -22 22 -23 29 -29 290 -6 305 -10 325
-85 410 -64 73 -148 112 -250 118 -51 2 -94 -1 -121 -10z" style="fill: rgb(227, 255, 154);"></path>
  </g>
</svg>